<svg width="24" height="24" viewBox="0 0 24 24" fill="none" xmlns="http://www.w3.org/2000/svg">
<path fill-rule="evenodd" clip-rule="evenodd" d="M3 11.9995C3 10.8176 3.23279 9.64735 3.68508 8.55547C4.13738 7.4636 4.80031 6.47149 5.63604 5.63581C6.47177 4.80012 7.46392 4.13722 8.55585 3.68495C9.64778 3.23268 10.8181 2.9999 12 2.9999C13.1819 2.9999 14.3522 3.23268 15.4442 3.68495C16.5361 4.13722 17.5282 4.80012 18.364 5.63581C19.1997 6.47149 19.8626 7.4636 20.3149 8.55547C20.7672 9.64735 21 10.8176 21 11.9995C21 14.3863 20.0518 16.6754 18.364 18.3631C16.6761 20.0508 14.3869 20.999 12 20.999C9.61305 20.999 7.32387 20.0508 5.63604 18.3631C3.94821 16.6754 3 14.3863 3 11.9995V11.9995ZM12 1C5.925 1 1 5.92476 1 11.9995C1 18.0742 5.925 22.9989 12 22.9989C18.075 22.9989 23 18.0742 23 11.9995C23 5.92476 18.075 1 12 1ZM10.707 6.29274C10.5184 6.11059 10.2658 6.0098 10.0036 6.01208C9.7414 6.01436 9.49059 6.11952 9.30518 6.30492C9.11977 6.49032 9.0146 6.74112 9.01233 7.0033C9.01005 7.26548 9.11084 7.51807 9.293 7.70667L13.586 11.9995L9.293 16.2922C9.19749 16.3845 9.12131 16.4948 9.0689 16.6168C9.01649 16.7388 8.9889 16.87 8.98775 17.0028C8.9866 17.1356 9.0119 17.2672 9.06218 17.3901C9.11246 17.513 9.18671 17.6247 9.28061 17.7186C9.3745 17.8125 9.48615 17.8867 9.60905 17.937C9.73194 17.9873 9.86362 18.0126 9.9964 18.0114C10.1292 18.0103 10.2604 17.9827 10.3824 17.9303C10.5044 17.8779 10.6148 17.8017 10.707 17.7062L15.707 12.7064C15.8945 12.5189 15.9998 12.2646 15.9998 11.9995C15.9998 11.7343 15.8945 11.48 15.707 11.2925L10.707 6.29274V6.29274Z" fill="black"/>
</svg>
