<svg width="58" height="52" viewBox="0 0 58 52" fill="none" xmlns="http://www.w3.org/2000/svg">
<path d="M0.5 16L3 23L5 25L19.5 26.5L39 29L54.5 18.5V12.5L50.5 5.5L43.5 1.5H38L34 3.5L28 8.5L22 2.5L16 1L10 2.5L3 8.5L0.5 16Z" fill="white"/>
<path d="M27.0004 47.5003C24.5334 44.9746 35.0008 42.278 35.0008 38.5003C41.5008 34.0003 39.5008 33.0003 43.7004 30.1541C48.5368 30.1541 47.912 20.3881 50.5 24.0003C53.088 20.3881 56.6471 8.5 49 5C54.5 8 58.0004 12.2932 58.0004 20.0558C58.0004 24.019 56.3316 27.599 53.6471 30.1541L32.0004 52.0003L27.0004 47.5003Z" fill="#B2B6F4"/>
<path d="M12.5 19.4999C7.7 19.0999 4.5 21.9999 3.5 23.4999L27 48L50 25L53 17.5C53 17.5 50 17.4998 46.5 19.4999C43 21.5 41.7071 23.4564 38 24.5C34.0529 25.6111 31.5669 25.024 27.5 24.5C21.3759 23.711 17.3 19.8999 12.5 19.4999Z" fill="#F8B7C2" stroke="#763B28" stroke-width="2"/>
<path d="M28 9.15597C26.8075 7.57012 25.3332 5.79864 23.6544 4.31882C21.586 2.49557 19.0775 1 16.3 1C7.86637 1 1 7.72442 1 16.0556C1 20.0986 2.62063 23.7686 5.25111 26.4701C5.26354 26.4835 5.27629 26.4964 5.28936 26.509L27.2898 48.704C27.4776 48.8935 27.7333 49 28.0001 49C28.2669 49 28.5226 48.8934 28.7103 48.7039L50.3469 26.8679C53.2121 24.1355 54.9986 20.3039 55 16.0604C55 16.0569 55 16.0534 55 16.0499C54.9969 7.72138 48.1317 1 39.7 1C36.9225 1 34.414 2.49557 32.3456 4.31882C30.6668 5.79864 29.1925 7.57012 28 9.15597Z" stroke="#763B28" stroke-width="2" stroke-linecap="round" stroke-linejoin="round"/>
<path fill-rule="evenodd" clip-rule="evenodd" d="M26.0083 45.9863L27.9995 48L49.6462 26.1013C52.3308 23.5401 53.9995 19.9514 53.9995 15.9788C53.9995 11.6258 51.996 7.73394 48.8479 5.14948C50.8196 7.56443 51.9995 10.6334 51.9995 13.974C51.9995 17.9466 50.3308 21.5353 47.6462 24.0965L26.0083 45.9863ZM26.2362 8.42401C25.2853 7.2447 24.2074 6.04453 23.0312 5C24.1691 6.26734 25.1708 7.5936 25.9995 8.75306C26.0769 8.64477 26.1558 8.53502 26.2362 8.42401Z" fill="#F28B9D"/>
</svg>
