<svg width="58" height="52" viewBox="0 0 58 52" fill="none" xmlns="http://www.w3.org/2000/svg">
<path d="M9.98331 29.7886C7.51629 27.263 6 23.8333 6 20.0556C6 12.2929 12.4023 6 20.3 6C25.1364 6 29.412 11.2349 32 14.8471C34.588 11.2349 38.8636 6 43.7 6C51.5977 6 58 12.2929 58 20.0556C58 24.0187 56.3312 27.5987 53.6467 30.1538L32 52L9.98331 29.7886Z" fill="#B2B6F4"/>
<path d="M5.26794 26.4874L5.26793 26.4874L5.2731 26.4926L27.2898 48.704C27.4776 48.8935 27.7333 49 28.0001 49C28.2669 49 28.5226 48.8934 28.7103 48.7039L50.3469 26.8679C53.2132 24.1345 55 20.301 55 16.0556C55 7.72442 48.1336 1 39.7 1C36.9225 1 34.414 2.49557 32.3456 4.31882C30.6668 5.79864 29.1925 7.57012 28 9.15597C26.8075 7.57012 25.3332 5.79864 23.6544 4.31882C21.586 2.49557 19.0775 1 16.3 1C7.86637 1 1 7.72442 1 16.0556C1 20.1072 2.62755 23.7842 5.26794 26.4874Z" fill="#F8B7C2" stroke="#763B28" stroke-width="2" stroke-linecap="round" stroke-linejoin="round"/>
<path fill-rule="evenodd" clip-rule="evenodd" d="M26.0088 45.9911L28 48L49.6467 26.1538C52.3313 23.5987 54 20.0186 54 16.0555C54 11.713 51.9964 7.83041 48.8484 5.25214C50.82 7.6613 52 10.723 52 14.0555C52 18.0186 50.3313 21.5987 47.6467 24.1538L26.0088 45.9911ZM26.2367 8.51882C25.2858 7.34234 24.2079 6.14504 23.0317 5.10302C24.1695 6.36732 25.1713 7.6904 26 8.84709C26.0774 8.73906 26.1563 8.62958 26.2367 8.51882Z" fill="#F28B9D"/>
<path d="M4.68612 15.8424C4.30862 9.87766 10.558 3.19951 17.7717 4.07014" stroke="#FFEEF1" stroke-width="2" stroke-linecap="round" stroke-linejoin="round"/>
<path d="M32.5 7.99989C33.6667 6.49989 37 3.59989 41 3.99989" stroke="#FFEEF1" stroke-width="2" stroke-linecap="round" stroke-linejoin="round"/>
</svg>
