<svg width="116" height="115" viewBox="0 0 116 115" fill="none" xmlns="http://www.w3.org/2000/svg">
<circle cx="60" cy="59" r="56" fill="#C2C2C2"/>
<circle cx="56" cy="56" r="55" fill="white" stroke="#763B28" stroke-width="2"/>
<circle cx="58.6875" cy="32.6875" r="14.2188" fill="#B2B6F4"/>
<circle cx="56.5" cy="30.5" r="15.2188" fill="#A6EDFD" stroke="#763B28" stroke-width="2"/>
<path fill-rule="evenodd" clip-rule="evenodd" d="M55.4066 43.6248C63.2594 43.6248 69.6253 37.2589 69.6253 29.4061C69.6253 25.758 68.2514 22.4307 65.9928 19.9136C68.894 22.5167 70.7191 26.2952 70.7191 30.4998C70.7191 38.3526 64.3531 44.7186 56.5003 44.7186C52.2956 44.7186 48.5172 42.8935 45.9141 39.9923C48.4312 42.2509 51.7584 43.6248 55.4066 43.6248Z" fill="#63C7DD"/>
<path d="M52.6719 17.9419C48.1252 19.3261 44.6249 23.1119 43.6484 27.8218" stroke="white" stroke-width="2" stroke-linecap="round" stroke-linejoin="round"/>
<g clip-path="url(#clip0_9352_1058)">
<path d="M60 61.525C64.3078 61.525 68.6667 58.1559 68.6667 54C73.5417 54.1195 83.8333 57.9416 86 71.2L76.25 76.9333L71.5556 70.125L74.4445 96C74.4445 96 69.5 98 60 98C51 98 45.5556 96 45.5556 96L48.4444 70.125L44.4722 76.9333L34 71.2C36.1667 57.7267 46.4583 54.1195 51.3333 54C51.3333 58.1559 55.6922 61.525 60 61.525Z" fill="#B2B6F4"/>
<path d="M64.6912 49.0003C64.4218 48.9937 64.1611 49.0961 63.9683 49.2843C63.7754 49.4725 63.6667 49.7305 63.6667 50C63.6667 51.7133 62.7667 53.3333 61.3072 54.5539C59.847 55.7752 57.9042 56.525 56 56.525C54.0958 56.525 52.153 55.7752 50.6928 54.5539C49.2333 53.3333 48.3333 51.7133 48.3333 50C48.3333 49.7305 48.2246 49.4725 48.0317 49.2843C47.8389 49.0961 47.5782 48.9937 47.3088 49.0003C42.083 49.1284 31.2749 52.9739 29.0127 67.0412C28.9455 67.459 29.1486 67.8739 29.5198 68.0771L39.992 73.8105C40.4671 74.0706 41.063 73.9051 41.336 73.4373L42.9261 70.7117L40.5617 91.889C40.5106 92.3466 40.7786 92.7799 41.2107 92.9387L41.5556 92C41.2107 92.9387 41.211 92.9388 41.2113 92.9389L41.212 92.9391L41.2137 92.9398L41.2187 92.9416L41.2346 92.9473L41.2901 92.9669C41.3376 92.9834 41.406 93.0068 41.4949 93.036C41.6727 93.0944 41.9323 93.1762 42.2701 93.2734C42.9456 93.468 43.934 93.7246 45.2056 93.9804C47.7486 94.4918 51.4261 95 56 95C60.8207 95 64.4995 94.4925 66.9868 93.9794C68.2303 93.7228 69.1755 93.465 69.8164 93.2686C70.1368 93.1705 70.3811 93.0877 70.5486 93.0281C70.6323 92.9983 70.6968 92.9744 70.7419 92.9572C70.7645 92.9486 70.7823 92.9417 70.7952 92.9367L70.811 92.9304L70.8161 92.9284L70.818 92.9276L70.8188 92.9273C70.8191 92.9272 70.8194 92.927 70.4445 92L70.8194 92.927C71.2351 92.7589 71.488 92.3346 71.4383 91.889L68.9909 69.9683L71.4267 73.501C71.7244 73.9327 72.3049 74.0611 72.7569 73.7953L82.5069 68.062C82.8628 67.8527 83.0535 67.4462 82.9869 67.0387C80.725 53.1974 69.9278 49.1286 64.6912 49.0003Z" fill="#D59B83" stroke="#763B28" stroke-width="2" stroke-linecap="round" stroke-linejoin="round"/>
<path fill-rule="evenodd" clip-rule="evenodd" d="M48.5707 53.7247C47.7967 52.6265 47.3333 51.3551 47.3333 50C46.8477 50.0119 46.3084 50.0584 45.7287 50.1458C46.2578 51.5562 47.2809 52.7935 48.5707 53.7247ZM30.1452 66.3744C30.0934 66.6454 30.0449 66.9206 30 67.2L40.4722 72.9333L41.695 70.8375L42.4444 64.125L38.4722 70.9333L30.1452 66.3744ZM41.7094 90.6221L41.5556 92C41.5556 92 47 94 56 94C65.5 94 70.4445 92 70.4445 92L67.6755 67.1996L65.5556 64.125L68.4445 90C68.4445 90 63.5 92 54 92C48.3407 92 44.0873 91.2092 41.7094 90.6221ZM70.6918 70.6735L72.25 72.9333L82 67.2C81.0068 61.1223 78.3062 57.0275 75.2027 54.3632C77.4249 56.9506 79.2281 60.4764 80 65.2L70.6918 70.6735Z" fill="#BD7B5F"/>
<path d="M46 69.5L44 90" stroke="#F9C5B0" stroke-width="2" stroke-linecap="round" stroke-linejoin="round"/>
<path d="M32 66C33 61.5 37.2 52.4 46 52C46.6667 54.3333 49.6 59 56 59" stroke="#F9C5B0" stroke-width="2" stroke-linecap="round" stroke-linejoin="round"/>
</g>
<defs>
<clipPath id="clip0_9352_1058">
<rect width="64" height="64" fill="white" transform="translate(24 40)"/>
</clipPath>
</defs>
</svg>
