<svg width="24" height="24" viewBox="0 0 24 24" fill="none" xmlns="http://www.w3.org/2000/svg">
<path fill-rule="evenodd" clip-rule="evenodd" d="M4 12C4 9.87827 4.84285 7.84344 6.34315 6.34315C7.84344 4.84285 9.87827 4 12 4C14.1217 4 16.1566 4.84285 17.6569 6.34315C19.1571 7.84344 20 9.87827 20 12C20 14.1217 19.1571 16.1566 17.6569 17.6569C16.1566 19.1571 14.1217 20 12 20C9.87827 20 7.84344 19.1571 6.34315 17.6569C4.84285 16.1566 4 14.1217 4 12V12ZM12 2C6.477 2 2 6.477 2 12C2 17.523 6.477 22 12 22C17.523 22 22 17.523 22 12C22 6.477 17.523 2 12 2ZM9.967 14.744C9.90041 14.4877 9.73491 14.2684 9.50679 14.134C9.27868 13.9995 9.00657 13.9611 8.75015 14.027C8.49372 14.0929 8.2739 14.2579 8.1389 14.4856C8.0039 14.7134 7.96474 14.9854 8.03 15.242C8.469 17 10.283 18 12 18C13.785 18 15.452 16.988 15.97 15.24C16.0291 14.9854 15.9863 14.7179 15.8506 14.4945C15.7149 14.2712 15.4972 14.1098 15.244 14.045C14.9908 13.9802 14.7224 14.017 14.496 14.1477C14.2697 14.2783 14.1035 14.4924 14.033 14.744C13.773 15.614 12.84 16 12 16C11.16 16 10.228 15.615 9.967 14.744ZM10.5 10C10.5 10.3978 10.342 10.7794 10.0607 11.0607C9.77936 11.342 9.39782 11.5 9 11.5C8.60218 11.5 8.22064 11.342 7.93934 11.0607C7.65804 10.7794 7.5 10.3978 7.5 10C7.5 9.60218 7.65804 9.22064 7.93934 8.93934C8.22064 8.65804 8.60218 8.5 9 8.5C9.39782 8.5 9.77936 8.65804 10.0607 8.93934C10.342 9.22064 10.5 9.60218 10.5 10ZM15 11.5C15.3978 11.5 15.7794 11.342 16.0607 11.0607C16.342 10.7794 16.5 10.3978 16.5 10C16.5 9.60218 16.342 9.22064 16.0607 8.93934C15.7794 8.65804 15.3978 8.5 15 8.5C14.6022 8.5 14.2206 8.65804 13.9393 8.93934C13.658 9.22064 13.5 9.60218 13.5 10C13.5 10.3978 13.658 10.7794 13.9393 11.0607C14.2206 11.342 14.6022 11.5 15 11.5Z" fill="black"/>
</svg>
