<svg width="38" height="42" viewBox="0 0 38 42" fill="none" xmlns="http://www.w3.org/2000/svg">
<path d="M32.5 11H35L36 8.5L35 7.5M32.5 14.5V38.5L30.5 41H8" stroke="#C1C2C1" stroke-width="2"/>
<path d="M4.5 38V10H2L1 9V6L2.5 5H12V3L13 1.5L14.5 1H16H19.5H21.5L22.5 1.5L23.5 3.5V5H33L34.5 6V9.5L33 10H31.5V38L30 40H6.5L4.5 38Z" fill="white"/>
<path d="M4.5 10V38L6.5 40H30L31.5 38V10M4.5 10H31.5M4.5 10H2L1 9V6L2.5 5H12M31.5 10H33L34.5 9.5V6L33 5H23.5M12 5H23.5M12 5V3L13 1.5L14.5 1H16H19.5H21.5L22.5 1.5L23.5 3.5V5M11 14.5V36M17.5 14.5V36M25 14.5V36" stroke="black" stroke-width="1.5"/>
<path d="M12 15.5V36.5M18.5 15.5V36.5M26 15.5V36.5M30.5 11V37.5L29 39H7L6 38H29.5V37L30 36.5V11.5" stroke="#DDDDDE"/>
</svg>
